<?xml version="1.0" encoding="utf-8"?>
<!-- Generator: Adobe Illustrator 23.0.2, SVG Export Plug-In . SVG Version: 6.00 Build 0)  -->
<svg version="1.1" id="Capa_1" xmlns="http://www.w3.org/2000/svg" xmlns:xlink="http://www.w3.org/1999/xlink" x="0px" y="0px"
	 viewBox="0 0 60 60" style="enable-background:new 0 0 60 60;" xml:space="preserve">
<style type="text/css">
	.st0{fill:#FFFFFF;stroke:#FFFFFF;stroke-width:2;stroke-miterlimit:10;}
</style>
<g>
	<path class="st0" d="M49.4,21C48.9,12.6,42,5.9,33.7,5.9c-5.1,0-10,2.5-13,6.5c-0.1,0-0.1-0.1-0.2-0.1c-0.2-0.1-0.4-0.2-0.6-0.3
		c-0.1,0-0.2-0.1-0.3-0.1c-0.2-0.1-0.4-0.1-0.6-0.2c-0.1,0-0.2-0.1-0.3-0.1c-0.2,0-0.4-0.1-0.6-0.1c-0.1,0-0.2,0-0.3,0
		c-0.3,0-0.6-0.1-0.9-0.1c-4.6,0-8.4,3.8-8.4,8.4c0,0.1,0,0.2,0,0.4c-3.9,2.1-6.5,6.5-6.5,11c0,6.6,5.4,12,12,12h4.8
		c0.5,0,0.9-0.4,0.9-0.9s-0.4-0.9-0.9-0.9h-4.8c-5.6,0-10.1-4.5-10.1-10.1c0-3.9,2.5-7.9,6-9.5l0.5-0.3v-0.6c0-0.1,0-0.2,0-0.3
		l0-0.2l0-0.2c0-0.1,0-0.2,0-0.2c0-3.6,2.9-6.5,6.5-6.5c0.3,0,0.6,0,0.9,0.1c0.1,0,0.1,0,0.2,0c0.2,0,0.5,0.1,0.7,0.2
		c0,0,0.1,0,0.1,0c0.3,0.1,0.5,0.2,0.8,0.3c0.1,0,0.1,0.1,0.2,0.1c0.2,0.1,0.4,0.2,0.7,0.4c1.8,1.2,3,3.2,3,5.5
		c0,0.5,0.4,0.9,0.9,0.9s0.9-0.4,0.9-0.9c0-2.6-1.2-4.9-3-6.4c2.7-3.5,7.1-5.7,11.4-5.7c7.2,0,13.2,5.7,13.8,12.9
		c-1-0.1-2.4-0.1-3.8,0.1c-0.5,0.1-0.9,0.6-0.8,1.1c0.1,0.5,0.5,0.8,0.9,0.8c0,0,0.1,0,0.1,0c2.1-0.3,4.2,0,4.4,0
		c4.3,0.8,7.6,4.8,7.6,9.3c0,5.1-4.2,9.3-9.3,9.3h-3.7c-0.5,0-0.9,0.4-0.9,0.9s0.4,0.9,0.9,0.9h3.7c6.2,0,11.2-5,11.2-11.2
		C57.8,26.8,54.2,22.2,49.4,21z"/>
	<path class="st0" d="M31.5,30.4c-0.1-0.1-0.2-0.2-0.3-0.2c-0.2-0.1-0.5-0.1-0.7,0c-0.1,0-0.2,0.1-0.3,0.2l-7.4,7.4
		c-0.4,0.4-0.4,1,0,1.3c0.2,0.2,0.4,0.3,0.7,0.3s0.5-0.1,0.7-0.3l5.9-5.9v19.2c0,0.5,0.4,0.9,0.9,0.9s0.9-0.4,0.9-0.9V33.3l5.9,5.9
		c0.2,0.2,0.4,0.3,0.7,0.3c0.2,0,0.5-0.1,0.7-0.3c0.4-0.4,0.4-1,0-1.3L31.5,30.4z"/>
</g>
</svg>
